<?xml version="1.0" encoding="UTF-8"?><svg id="Capa_2" xmlns="http://www.w3.org/2000/svg" viewBox="0 0 201.98 73.32"><defs><style>.cls-1{fill:#0094a3;}.cls-2{fill:#fed600;}.cls-3{fill:#c13278;}.cls-4{fill:#e2388d;}.cls-5{fill:#4a96d2;}</style></defs><g id="Layer_1"><g><path class="cls-2" d="M62.3,58.09l-30.63,15.24L0,57.57l10.04-4.99,19.4,14.47,32.77-9.51c.02,.19,.05,.37,.1,.55Z"/><path class="cls-1" d="M62.25,56.36c-.03,.19-.06,.39-.07,.59l-33.83,3.5L4.23,34.58l11.15-1.16,13.09,20.36,33.79,2.58Z"/><path class="cls-5" d="M62.69,55.19c-.11,.19-.19,.39-.27,.59l-32.67-8.53L16.25,14.55l10.85,2.83,5.11,23.65,30.49,14.16Z"/><path class="cls-4" d="M64.56,53.51c-.46,.19-.87,.48-1.22,.83-.09,.09-.19,.19-.27,.3l-27.35-19.28L34.54,0h0s0,.01,.01,.02l28.89,20.37,1.11,33.13Z"/><path class="cls-3" d="M63.34,54.34c-.09,.09-.19,.19-.27,.3l-27.35-19.28L34.54,0h0s0,.01,.01,.02c.45,.46,7.72,8.12,14.27,27.17,5.28,15.34,11.8,23.99,14.52,27.15Z"/></g><g><path class="cls-5" d="M76.11,57.43c0,.16-.05,.31-.16,.44-.11,.13-.28,.24-.52,.32-.24,.08-.57,.14-.97,.19-.41,.05-.93,.07-1.56,.07s-1.13-.02-1.55-.07c-.41-.05-.74-.11-.99-.19-.24-.08-.42-.19-.52-.32-.11-.13-.16-.27-.16-.44V27.68c0-.16,.05-.31,.16-.44,.11-.13,.29-.23,.53-.32,.25-.08,.58-.14,.99-.19,.4-.05,.92-.07,1.53-.07s1.15,.02,1.56,.07c.4,.05,.73,.11,.97,.19,.24,.08,.42,.19,.52,.32,.1,.13,.16,.27,.16,.44v29.75Z"/><path class="cls-5" d="M105.86,56.11c0,.36-.06,.69-.19,.98-.13,.29-.3,.53-.51,.72-.22,.19-.47,.33-.76,.42-.29,.09-.59,.13-.9,.13h-2.67c-.56,0-1.04-.06-1.44-.17-.4-.11-.78-.31-1.12-.61-.34-.29-.68-.69-.99-1.19-.32-.5-.67-1.15-1.07-1.95l-7.68-14.43c-.45-.86-.9-1.78-1.36-2.78-.46-.99-.88-1.96-1.24-2.9h-.05c.06,1.15,.11,2.29,.14,3.42,.03,1.14,.05,2.31,.05,3.52v16.15c0,.16-.04,.3-.13,.43-.09,.13-.24,.24-.45,.32-.22,.09-.51,.16-.87,.2-.37,.05-.84,.07-1.41,.07s-1.02-.02-1.38-.07c-.37-.05-.65-.12-.86-.2-.21-.09-.35-.19-.43-.32-.08-.13-.12-.27-.12-.43V29.69c0-.75,.22-1.31,.66-1.68,.44-.37,.97-.56,1.61-.56h3.36c.61,0,1.11,.05,1.53,.16,.41,.1,.78,.28,1.11,.51,.32,.24,.63,.57,.92,.99,.29,.42,.58,.94,.88,1.56l6.01,11.28c.35,.68,.69,1.36,1.04,2.01,.34,.66,.67,1.32,.99,1.98,.32,.66,.63,1.31,.93,1.95,.3,.63,.59,1.27,.88,1.91h.02c-.05-1.11-.08-2.27-.11-3.48-.02-1.21-.04-2.36-.04-3.46v-14.48c0-.16,.05-.3,.14-.43,.1-.13,.26-.24,.48-.33,.22-.1,.52-.16,.88-.2,.37-.04,.83-.06,1.41-.06,.54,0,.99,.02,1.36,.06,.37,.04,.65,.11,.85,.2,.2,.09,.34,.21,.42,.33s.12,.27,.12,.43v27.74Z"/><path class="cls-5" d="M130.68,30.02c0,.46-.02,.86-.06,1.18-.04,.33-.1,.59-.18,.78-.08,.2-.18,.35-.3,.44-.12,.09-.25,.14-.39,.14h-7.73v24.88c0,.16-.05,.3-.16,.43-.1,.13-.27,.23-.51,.31-.24,.08-.56,.14-.97,.19-.4,.05-.91,.07-1.51,.07s-1.11-.02-1.52-.07c-.4-.05-.73-.11-.97-.19-.24-.08-.41-.18-.51-.31-.1-.13-.16-.27-.16-.43v-24.88h-7.73c-.16,0-.29-.05-.4-.14-.11-.09-.21-.24-.29-.44-.08-.2-.14-.46-.18-.78-.04-.33-.06-.72-.06-1.18s.02-.88,.06-1.22c.04-.33,.1-.6,.18-.8,.08-.2,.17-.34,.29-.43,.11-.09,.25-.13,.4-.13h21.75c.14,0,.27,.05,.39,.13,.12,.09,.22,.23,.3,.43,.08,.2,.14,.46,.18,.8,.04,.33,.06,.74,.06,1.22Z"/><path class="cls-5" d="M154.78,57.49c0,.18-.03,.32-.09,.44-.06,.12-.22,.22-.45,.3-.24,.08-.59,.13-1.05,.17-.46,.03-1.09,.05-1.88,.05-.67,0-1.2-.02-1.6-.05-.4-.03-.71-.09-.94-.18s-.39-.2-.49-.33c-.1-.13-.17-.3-.24-.49l-2.76-6.89c-.34-.78-.66-1.47-.98-2.07-.32-.61-.67-1.11-1.06-1.52-.39-.4-.84-.71-1.35-.92-.51-.21-1.1-.31-1.77-.31h-1.96v11.76c0,.16-.05,.3-.16,.43-.1,.13-.27,.23-.51,.31-.24,.08-.56,.14-.96,.19-.4,.05-.91,.07-1.52,.07s-1.11-.02-1.52-.07c-.41-.05-.73-.11-.97-.19-.24-.08-.4-.18-.5-.31-.1-.13-.14-.27-.14-.43V29.42c0-.7,.18-1.2,.54-1.51,.36-.31,.8-.47,1.32-.47h7.99c.81,0,1.48,.02,2,.05,.53,.03,1,.07,1.43,.12,1.24,.18,2.36,.48,3.35,.91,.99,.43,1.84,.99,2.53,1.68,.69,.69,1.22,1.51,1.58,2.46,.37,.95,.55,2.03,.55,3.26,0,1.03-.13,1.97-.39,2.82-.26,.85-.65,1.61-1.16,2.28-.51,.67-1.14,1.25-1.89,1.74-.75,.49-1.6,.89-2.55,1.19,.46,.22,.89,.49,1.3,.81,.4,.32,.79,.7,1.14,1.16,.36,.45,.7,.97,1.01,1.55,.32,.58,.63,1.24,.93,1.97l2.6,6.08c.24,.6,.4,1.05,.48,1.32,.08,.28,.12,.5,.12,.65Zm-8.08-20.94c0-1.02-.23-1.88-.69-2.58-.46-.7-1.22-1.19-2.27-1.48-.32-.08-.68-.14-1.08-.19-.41-.05-.97-.07-1.68-.07h-2.82v8.75h3.2c.89,0,1.67-.11,2.34-.32,.67-.22,1.22-.52,1.67-.91,.45-.39,.78-.86,1-1.4,.22-.54,.34-1.15,.34-1.81Z"/><path class="cls-5" d="M182.22,55.97c.19,.57,.31,1.03,.36,1.36,.05,.34-.02,.59-.19,.75-.17,.17-.49,.27-.93,.31-.44,.04-1.06,.06-1.83,.06s-1.45-.01-1.9-.04c-.45-.03-.8-.07-1.04-.14-.24-.07-.4-.17-.5-.3-.1-.13-.18-.29-.24-.5l-2.07-6.2h-11.59l-1.96,6.03c-.07,.22-.15,.41-.25,.56-.1,.15-.27,.27-.5,.36-.23,.09-.56,.15-.98,.18-.42,.03-.97,.05-1.66,.05-.73,0-1.3-.02-1.72-.07-.41-.05-.7-.16-.86-.35-.16-.18-.22-.44-.17-.78,.05-.33,.17-.78,.36-1.33l9.52-27.38c.1-.27,.21-.49,.33-.66,.13-.17,.33-.29,.61-.38,.28-.08,.66-.14,1.16-.16,.49-.02,1.14-.04,1.96-.04,.94,0,1.68,.01,2.24,.04,.56,.02,.99,.08,1.3,.16,.31,.09,.53,.22,.67,.4,.13,.18,.25,.41,.35,.72l9.54,27.36Zm-14.17-22.63h-.03l-4.36,13.12h8.75l-4.36-13.12Z"/><path class="cls-5" d="M201.98,30.27c0,.46-.02,.85-.06,1.17-.04,.32-.1,.58-.18,.78-.08,.2-.18,.34-.3,.44-.12,.09-.25,.14-.39,.14h-7.66v24.65c0,.16-.05,.3-.15,.43-.1,.13-.27,.23-.51,.31-.23,.08-.56,.14-.96,.19-.4,.05-.9,.07-1.5,.07s-1.1-.03-1.5-.07c-.4-.05-.72-.11-.96-.19-.24-.08-.4-.18-.51-.31-.1-.13-.15-.27-.15-.43v-24.65h-7.66c-.16,0-.29-.05-.4-.14-.11-.1-.2-.24-.28-.44-.08-.2-.14-.46-.18-.78-.04-.32-.06-.71-.06-1.17s.02-.87,.06-1.2c.04-.33,.1-.59,.18-.79,.08-.2,.17-.34,.28-.43,.11-.09,.24-.13,.4-.13h21.56c.14,0,.27,.04,.39,.13,.12,.09,.22,.23,.3,.43,.08,.2,.14,.46,.18,.79,.04,.33,.06,.73,.06,1.2Z"/></g></g></svg>